<svg width="50" height="24" viewBox="0 0 50 24" fill="none" xmlns="http://www.w3.org/2000/svg">
<path d="M8.25535 5.7258C8.80356 5.50744 9.38831 5.39099 9.995 5.39099C12.6508 5.39099 14.868 7.64441 15.3748 10.6403L19.1391 9.72316C18.2766 4.63402 14.5098 0.802612 9.995 0.802612C8.95949 0.802612 7.96785 1.0035 7.03711 1.37616L8.25535 5.7258Z" fill="#FFCB05"/>
<path d="M3.81346 20.3003L6.35959 16.8619C5.22418 15.6595 4.50786 13.9039 4.50786 11.9474C4.50786 9.99389 5.22418 8.23831 6.35959 7.03882L3.81346 3.59753C1.88377 5.64134 0.665527 8.62553 0.665527 11.9474C0.665527 15.2723 1.88377 18.2565 3.81346 20.3003" fill="#00A4E0"/>
<path d="M15.3748 13.2634C14.8655 16.2564 12.6508 18.5069 9.99743 18.5069C9.38831 18.5069 8.80112 18.3904 8.25535 18.1691L7.03711 22.5246C7.96785 22.8944 8.96193 23.0952 9.99743 23.0952C14.5074 23.0952 18.2717 19.2697 19.1391 14.1863L15.3748 13.2634Z" fill="#EF4123"/>
<path d="M22.4306 17.0046C22.3064 16.7659 22.1407 16.3845 22.0383 16.1021C21.4414 14.4484 21.4146 12.7365 21.9165 11.0945C22.4696 9.29231 23.527 7.91521 24.8939 7.21065C26.6116 6.3285 28.5096 6.50027 30.1567 7.66774C31.202 8.38395 31.9426 9.49028 32.5055 11.0566C32.5761 11.2575 32.6395 11.47 32.7028 11.6535L22.4306 17.0046ZM25.8612 9.86877C24.6405 10.4947 24.0119 11.8631 24.1435 13.4644L29.3088 10.8062C28.4195 9.56016 27.2646 9.14674 25.8612 9.86877V9.86877ZM29.952 15.6508C29.9496 15.6508 29.9496 15.6537 29.9496 15.6537L29.8424 15.5664C29.533 16.1632 29.053 16.6494 28.4463 16.9639C27.2914 17.5636 26.2218 17.4093 25.4519 16.6028L25.3812 16.7309C25.3812 16.7309 25.3812 16.728 25.3788 16.728L24.0679 19.0717C24.3944 19.3425 24.7428 19.5696 25.1083 19.753C26.5556 20.4721 28.037 20.4372 29.4964 19.6802C30.5514 19.1329 31.3798 18.3002 31.9451 17.2434L29.952 15.6508ZM36.2918 3.76355V16.7892L37.9876 17.6102L37.0251 20.2945L35.1539 19.3629C34.7348 19.1445 34.4473 18.8126 34.2329 18.437C34.0258 18.0556 33.8723 17.5287 33.8723 16.8241V3.76355H36.2918ZM40.6823 13.4731C40.6823 12.3638 41.0941 11.3681 41.7422 10.6927L40.0025 8.37521C38.8233 9.6213 38.0801 11.4409 38.0801 13.4673C38.0777 15.4965 38.8208 17.3191 39.9977 18.5651L41.7349 16.2477C41.0892 15.5693 40.6823 14.5794 40.6823 13.4731V13.4731ZM43.7718 17.1677C43.4307 17.1677 43.0993 17.0978 42.7923 16.9755L41.9615 19.9248C42.5292 20.1518 43.1358 20.277 43.7693 20.277C46.5226 20.28 48.8202 17.945 49.3537 14.8444L46.8003 14.2213C46.5104 15.907 45.2653 17.1706 43.7718 17.1677V17.1677ZM43.7791 6.66913C43.148 6.66913 42.5413 6.79141 41.9736 7.01559L42.7972 9.96775C43.1066 9.84547 43.4355 9.77851 43.7766 9.77851C45.2726 9.78142 46.5201 11.0508 46.8027 12.7394L49.3562 12.1222C48.8323 9.01572 46.5347 6.67204 43.7791 6.66913V6.66913Z" fill="white"/>
</svg>
